HIERARCHY
ROOT root
{
	OFFSET	0	13.1	24.9
	CHANNELS 6  Xposition Yposition Zposition Xrotation Yrotation Zrotation
	JOINT spine_1
	{
		OFFSET	0	9.99999	0
		CHANNELS 3  Xrotation Yrotation Zrotation
		JOINT spine_2
		{
			OFFSET	0	112	-10
			CHANNELS 3  Xrotation Yrotation Zrotation
			JOINT spine_3
			{
				OFFSET	0	206.5	19.3
				CHANNELS 3  Xrotation Yrotation Zrotation
				JOINT spine_4
				{
					OFFSET	0	110.4	14.6
					CHANNELS 3  Xrotation Yrotation Zrotation
					JOINT neck_1
					{
						OFFSET	0	71.8	-50.3
						CHANNELS 3  Xrotation Yrotation Zrotation
						JOINT neck_2
						{
							OFFSET	0	86.2	-25.8
							CHANNELS 3  Xrotation Yrotation Zrotation
							JOINT head_ee
							{
								OFFSET	0	179.8	-8.7
								CHANNELS 3  Xrotation Yrotation Zrotation
								End Site
								{
									OFFSET	1	0	0
								}
							}
						}
					}
					JOINT left_clavicle
					{
						OFFSET	-43.2	22.4	-70.8
						CHANNELS 3  Xrotation Yrotation Zrotation
						JOINT left_shoulder
						{
							OFFSET	-93.9	-5.79999	48.7
							CHANNELS 3  Xrotation Yrotation Zrotation
							JOINT left_elbow
							{
								OFFSET	-291.4	-30.8	15.2
								CHANNELS 3  Xrotation Yrotation Zrotation
								JOINT left_lowarm_twist
								{
									OFFSET	-110.7	-3.89999	13.6
									CHANNELS 3  Xrotation Yrotation Zrotation
									JOINT left_hand
									{
										OFFSET	-110.7	-3.89999	13.6
										CHANNELS 3  Xrotation Yrotation Zrotation
										JOINT left_ee
										{
											OFFSET	-80.8	-5.10001	12.1
											CHANNELS 3  Xrotation Yrotation Zrotation
											End Site
											{
												OFFSET	1	0	0
											}
										}
									}
								}
							}
						}
					}
					JOINT right_clavicle
					{
						OFFSET	43.2	22.4	-70.8
						CHANNELS 3  Xrotation Yrotation Zrotation
						JOINT right_shoulder
						{
							OFFSET	93.9	-5.79999	48.7
							CHANNELS 3  Xrotation Yrotation Zrotation
							JOINT right_elbow
							{
								OFFSET	291.4	-30.8	15.2
								CHANNELS 3  Xrotation Yrotation Zrotation
								JOINT right_lowarm_twist
								{
									OFFSET	110.7	-3.89999	13.6
									CHANNELS 3  Xrotation Yrotation Zrotation
									JOINT right_hand
									{
										OFFSET	110.7	-3.89999	13.6
										CHANNELS 3  Xrotation Yrotation Zrotation
										JOINT right_ee
										{
											OFFSET	80.8	-5.10001	12.1
											CHANNELS 3  Xrotation Yrotation Zrotation
											End Site
											{
												OFFSET	1	0	0
											}
										}
									}
								}
							}
						}
					}
				}
			}
		}
	}
	JOINT left_hip
	{
		OFFSET	-82.8	-127.5	0.300001
		CHANNELS 3  Xrotation Yrotation Zrotation
		JOINT left_knee
		{
			OFFSET	-28.2	-396.7	2.2
			CHANNELS 3  Xrotation Yrotation Zrotation
			JOINT left_ankle
			{
				OFFSET	-11.7	-411.3	35.4
				CHANNELS 3  Xrotation Yrotation Zrotation
				JOINT left_toes
				{
					OFFSET	0	-60	-88.6
					CHANNELS 3  Xrotation Yrotation Zrotation
					JOINT left_foot_ee
					{
						OFFSET	-22.5	-16.5	-42.2
						CHANNELS 3  Xrotation Yrotation Zrotation
						End Site
						{
							OFFSET	1	0	0
						}
					}
				}
			}
		}
	}
	JOINT right_hip
	{
		OFFSET	82.8	-127.5	0.300001
		CHANNELS 3  Xrotation Yrotation Zrotation
		JOINT right_knee
		{
			OFFSET	28.2	-396.7	2.2
			CHANNELS 3  Xrotation Yrotation Zrotation
			JOINT right_ankle
			{
				OFFSET	11.7	-411.3	35.4
				CHANNELS 3  Xrotation Yrotation Zrotation
				JOINT right_toes
				{
					OFFSET	0	-60	-88.6
					CHANNELS 3  Xrotation Yrotation Zrotation
					JOINT right_foot_ee
					{
						OFFSET	22.5	-16.5	-42.2
						CHANNELS 3  Xrotation Yrotation Zrotation
						End Site
						{
							OFFSET	1	0	0
						}
					}
				}
			}
		}
	}
}
MOTION
Frames: 10
Frame Time: 0.02
3177.02 653.055 -1669.29 8.15232501856 67.8409227442 -4.65830039445 -2.94729 0.404201 0.220864 -2.94735 0.389328 0.246137 -2.94564 0.3119 0.338937 -2.94562 0.361514 0.285425 -0.417264 18.9978 -2.26123 0.658495 35.8755 -0.607217 -0.0 0.0 -0.0 5.18477 24.2101 9.83936 -13.2217 20.828 72.6114 1.03354 -27.1112 0.2492 -14.2398 -0.713359 1.67049 -0.949429 27.417 5.53208 -0.0 0.0 -0.0 14.5013 26.4383 -29.1251 14.9239 24.1674 -65.1975 0.988412 26.0873 -0.228991 -11.2397 0.528779 -1.33393 2.33151 -0.707905 -16.06 0.0 0.0 0.0 28.1662 20.5698 -13.3577 -3.33068 0.122734 0.496348 2.4989 -29.4962 -0.459896 -15.2135 0.0 0.0 -0.0 0.0 -0.0 -20.5534 0.312735 0.919287 -11.8729 -0.303947 -1.79348 34.9416 18.4389 4.80578 -30.7317 0.0 0.0 0.0 0.0 0.0 
3162.94742447 650.372 -1668.30393818 7.86119230755 67.8731526279 -4.2797092284 -2.80451 0.359445 0.335992 -2.80451 0.337336 0.358183 -2.80228 0.233637 0.433018 -2.80242 0.299091 0.390686 0.00631866 18.0253 -2.05152 1.00309 33.8742 -0.563472 -0.0 0.0 -0.0 5.4203 23.7221 10.1901 -11.7866 19.9374 72.1122 1.02577 -26.9361 0.245666 -13.3665 -0.657808 1.57351 -0.752348 27.4411 6.62634 -0.0 0.0 -0.0 14.1046 26.659 -28.1648 14.3692 24.1573 -65.748 0.96421 25.5306 -0.218454 -10.1439 0.4658 -1.20868 2.10237 -0.700101 -14.4704 0.0 0.0 0.0 28.7886 20.2918 -13.6685 -5.53677 0.188043 0.828595 0.628763 -28.7018 -0.115176 -15.0854 0.0 0.0 -0.0 0.0 -0.0 -21.349 0.701346 1.60593 -13.4431 -0.316121 -2.03409 36.3155 20.0109 5.0055 -27.8748 0.0 0.0 0.0 0.0 0.0 
3144.15592111 651.914 -1667.47263406 7.43116218904 67.6416256986 -4.25746475251 -2.74288 0.343903 0.493495 -2.74279 0.311804 0.514378 -2.73975 0.169346 0.577171 -2.74012 0.258373 0.543184 0.384399 18.6164 -2.18632 1.51422 34.9676 -0.795372 -0.0 0.0 -0.0 5.41757 23.6181 10.1915 -10.7054 19.7503 71.6205 1.13559 -29.3584 0.297485 -13.0552 -0.638366 1.53874 -0.575503 26.7259 7.32307 -0.0 0.0 -0.0 14.1556 26.4623 -28.3095 13.6338 23.0644 -65.8032 0.911936 24.3106 -0.196427 -9.26876 0.417237 -1.10781 1.93993 -0.629231 -13.3249 0.0 0.0 0.0 28.8258 19.9977 -13.5074 -8.63832 0.258118 1.29934 0.69338 -29.2287 -0.127882 -13.6204 0.0 0.0 -0.0 0.0 -0.0 -21.1469 1.48112 2.64227 -14.7275 -0.321173 -2.23109 33.8603 18.7211 4.70452 -29.2851 0.0 0.0 0.0 0.0 0.0 
3116.0971293 652.875 -1665.54983608 6.98557627297 67.055904035 -4.14126862656 -2.69964 0.187193 0.564837 -2.69948 0.150872 0.575603 -2.6977 -0.00148128 0.595045 -2.69818 0.0925119 0.587812 -0.101935 18.6895 -1.21927 0.886363 34.4258 0.428688 -0.0 0.0 -0.0 6.57239 22.9072 11.8801 -10.8327 21.2766 69.2975 1.12277 -29.0813 0.291225 -12.7772 -0.621164 1.5076 -0.575208 25.0186 6.65306 -0.0 0.0 -0.0 13.8904 25.9423 -27.7536 11.4067 23.0173 -66.5563 0.897564 23.9709 -0.190549 -8.69638 0.386313 -1.04145 1.68138 0.723451 -11.0144 0.0 0.0 0.0 26.4837 20.6136 -12.5341 -7.47622 0.23485 1.12253 0.0728064 -28.8064 -0.0133773 -13.4361 0.0 0.0 -0.0 0.0 -0.0 -22.2117 2.40952 3.66452 -17.5822 -0.316583 -2.669 35.2409 16.918 4.78186 -28.6186 0.0 0.0 0.0 0.0 0.0 
3070.19262953 661.737 -1658.94632952 8.48741384179 66.0121920302 -6.85120942599 -2.777 0.0971442 0.744396 -2.77669 0.0495808 0.749068 -2.77566 -0.14481 0.736609 -2.77642 -0.0266626 0.750233 3.92888 18.4787 0.309423 5.15366 31.8335 1.12008 -0.0 0.0 -0.0 7.78959 24.2986 13.4804 -9.34846 21.768 66.612 1.04242 -27.3105 0.25326 -13.1729 -0.645698 1.5519 -0.954651 26.8389 5.26408 -0.0 0.0 -0.0 13.5469 25.9459 -26.9518 8.12696 23.6275 -67.3566 0.762493 20.6923 -0.139205 -8.31644 0.366154 -0.99723 2.05447 2.94545 -12.6669 0.0 0.0 0.0 22.9792 21.7435 -10.639 -11.9663 0.304855 1.80777 6.4267 -27.1118 -1.131 -8.95647 0.0 0.0 -0.0 0.0 -0.0 -22.0891 4.78605 5.94781 -19.2385 -0.303922 -2.92281 34.333 9.65214 4.49132 -30.7304 0.0 0.0 0.0 0.0 0.0 
3020.43185613 671.185 -1658.5498511 8.15814474095 64.2008423915 -7.64564606632 -2.83039 0.0257347 0.809984 -2.83003 -0.0258571 0.80998 -2.83 -0.234124 0.775839 -2.83082 -0.108661 0.803075 6.45692 18.1921 1.51419 7.67097 29.6051 2.06747 -0.0 0.0 -0.0 9.36873 24.5462 15.7116 -8.5382 22.1132 63.8177 1.11483 -28.909 0.287379 -12.9486 -0.631753 1.52681 -1.36674 24.6553 2.02057 -0.0 0.0 -0.0 13.2105 26.0509 -26.158 4.85607 23.4427 -67.7915 0.569963 15.7668 -0.0789213 -7.02447 0.29981 -0.845904 2.82377 5.24051 -17.0665 0.0 0.0 0.0 16.3776 23.0474 -6.46283 -8.47196 0.255007 1.274 11.2323 -24.8045 -1.88651 -10.5334 0.0 0.0 -0.0 0.0 -0.0 -20.871 10.0218 7.15657 -26.4517 -0.163539 -4.02007 37.2003 -3.59054 4.60914 -34.0162 0.0 0.0 0.0 0.0 0.0 
3020.38501931 671.185 -1659.25603646 8.08307725317 63.9450779272 -7.56217781707 -2.83039 0.0257347 0.809984 -2.83003 -0.0258571 0.80998 -2.83 -0.234124 0.775839 -2.83082 -0.108661 0.803075 6.45692 18.1921 1.51419 7.67097 29.6051 2.06747 -0.0 0.0 -0.0 9.36873 24.5462 15.7116 -8.5382 22.1132 63.8177 1.11483 -28.909 0.287379 -12.9486 -0.631753 1.52681 -1.36674 24.6553 2.02057 -0.0 0.0 -0.0 13.2105 26.0509 -26.158 4.85607 23.4427 -67.7915 0.569963 15.7668 -0.0789213 -7.02447 0.29981 -0.845904 2.82377 5.24051 -17.0665 0.0 0.0 0.0 16.3776 23.0474 -6.46283 -8.47196 0.255007 1.274 11.2323 -24.8045 -1.88651 -10.5334 0.0 0.0 -0.0 0.0 -0.0 -20.871 10.0218 7.15657 -26.4517 -0.163539 -4.02007 37.2003 -3.59054 4.60914 -34.0162 0.0 0.0 0.0 0.0 0.0 
2994.5008087 672.061 -1661.39048062 7.3753837201 61.0502128489 -7.29529376188 -2.85972 0.123593 0.84135 -2.85933 0.0698069 0.847509 -2.85779 -0.151792 0.836723 -2.85876 -0.0177475 0.850194 7.39319 18.4045 2.71256 8.54919 28.6302 3.36949 -0.0 0.0 -0.0 9.83665 24.5549 16.3917 -7.72072 22.273 62.961 1.143 -29.5179 0.301125 -12.1942 -0.585579 1.44203 -1.38728 24.4696 1.82156 -0.0 0.0 -0.0 13.0323 26.2568 -25.7213 3.03072 23.3735 -68.1082 0.501916 13.9628 -0.0614623 -6.73695 0.285512 -0.812029 3.21728 5.71874 -19.6556 0.0 0.0 0.0 13.4156 23.5168 -4.12007 -8.18185 0.249406 1.22983 11.9725 -20.0943 -1.91072 -10.6011 0.0 0.0 -0.0 0.0 -0.0 -20.5812 13.4755 8.15064 -29.8432 -0.0500415 -4.52812 40.2631 -8.56426 4.89024 -35.3312 0.0 0.0 0.0 0.0 0.0 
2994.4456257 672.061 -1662.7895808 7.2750677515 60.6146646158 -7.18041120453 -2.85972 0.123593 0.84135 -2.85933 0.0698069 0.847509 -2.85779 -0.151792 0.836723 -2.85876 -0.0177475 0.850194 7.39319 18.4045 2.71256 8.54919 28.6302 3.36949 -0.0 0.0 -0.0 9.83665 24.5549 16.3917 -7.72072 22.273 62.961 1.143 -29.5179 0.301125 -12.1942 -0.585579 1.44203 -1.38728 24.4696 1.82156 -0.0 0.0 -0.0 13.0323 26.2568 -25.7213 3.03072 23.3735 -68.1082 0.501916 13.9628 -0.0614623 -6.73695 0.285512 -0.812029 3.21728 5.71874 -19.6556 0.0 0.0 0.0 13.4156 23.5168 -4.12007 -8.18185 0.249406 1.22983 11.9725 -20.0943 -1.91072 -10.6011 0.0 0.0 -0.0 0.0 -0.0 -20.5812 13.4755 8.15064 -29.8432 -0.0500415 -4.52812 40.2631 -8.56426 4.89024 -35.3312 0.0 0.0 0.0 0.0 0.0 
2994.4010117 672.061 -1664.19463821 7.17746023546 60.1772849784 -7.06814983309 -2.85972 0.123593 0.84135 -2.85933 0.0698069 0.847509 -2.85779 -0.151792 0.836723 -2.85876 -0.0177475 0.850194 7.39319 18.4045 2.71256 8.54919 28.6302 3.36949 -0.0 0.0 -0.0 9.83665 24.5549 16.3917 -7.72072 22.273 62.961 1.143 -29.5179 0.301125 -12.1942 -0.585579 1.44203 -1.38728 24.4696 1.82156 -0.0 0.0 -0.0 13.0323 26.2568 -25.7213 3.03072 23.3735 -68.1082 0.501916 13.9628 -0.0614623 -6.73695 0.285512 -0.812029 3.21728 5.71874 -19.6556 0.0 0.0 0.0 13.4156 23.5168 -4.12007 -8.18185 0.249406 1.22983 11.9725 -20.0943 -1.91072 -10.6011 0.0 0.0 -0.0 0.0 -0.0 -20.5812 13.4755 8.15064 -29.8432 -0.0500415 -4.52812 40.2631 -8.56426 4.89024 -35.3312 0.0 0.0 0.0 0.0 0.0 
